<svg xmlns="http://www.w3.org/2000/svg" viewBox="0 0 640 480" width="640" height="480" fill="none" role="img" aria-label="Supply loop: an invoice financed early and returned as working capital">
<title>Supply loop: an invoice financed early and returned as working capital</title>
<g transform="translate(320,250)">
<ellipse cx="-6" cy="15" rx="150" ry="51.00000000000001" fill="rgba(31,68,82,0.08)"/><polygon points="-144,0 0,72 0,81 -144,9" fill="#FBF7F5" stroke="rgba(31,68,82,0.5)" stroke-width="1" stroke-linejoin="round"/><polygon points="144,0 0,72 0,81 144,9" fill="#EDE7E2" stroke="rgba(31,68,82,0.5)" stroke-width="1" stroke-linejoin="round"/><polygon points="0,-72 144,0 0,72 -144,0" fill="#FFFFFF" stroke="rgba(31,68,82,0.6)" stroke-width="1" stroke-linejoin="round"/><polygon points="-87,-17.7 -30,10.8 -30,14.4 -87,-14.1" fill="#FBF7F5" stroke="rgba(31,68,82,0.5)" stroke-width="1" stroke-linejoin="round"/><polygon points="42,-25.2 -30,10.8 -30,14.4 42,-21.6" fill="#EDE7E2" stroke="rgba(31,68,82,0.5)" stroke-width="1" stroke-linejoin="round"/><polygon points="-15,-53.7 42,-25.2 -30,10.8 -87,-17.7" fill="#FFFFFF" stroke="rgba(31,68,82,0.6)" stroke-width="1" stroke-linejoin="round"/><line x1="-21" y1="-42.3" x2="19.2" y2="-22.2" stroke="rgba(31,68,82,0.32)" stroke-width="1.4" stroke-linecap="round"/><line x1="-35.4" y1="-35.1" x2="4.8" y2="-15" stroke="rgba(31,68,82,0.32)" stroke-width="1.4" stroke-linecap="round"/><line x1="-49.8" y1="-27.9" x2="-9.6" y2="-7.8" stroke="rgba(31,68,82,0.32)" stroke-width="1.4" stroke-linecap="round"/><line x1="-64.2" y1="-20.7" x2="-44.1" y2="-10.65" stroke="rgba(31,68,82,0.32)" stroke-width="1.4" stroke-linecap="round"/><polygon points="24,-34.2 42,-25.2 24,-16.2" fill="#E39774"/><polygon points="-6,6 24,21 24,48 -6,33" fill="#326273" stroke="rgba(31,68,82,0.5)" stroke-width="1.2" stroke-linejoin="round"/><polygon points="54,6 24,21 24,48 54,33" fill="#284E5B" stroke="rgba(31,68,82,0.5)" stroke-width="1.2" stroke-linejoin="round"/><polygon points="24,-9 54,6 24,21 -6,6" fill="#4E7E8F" stroke="rgba(31,68,82,0.6)" stroke-width="1.2" stroke-linejoin="round"/><ellipse cx="24" cy="33" rx="12.6" ry="6.3" fill="#EDAB8E" stroke="rgba(31,68,82,0.5)" stroke-width="1.2"/><path d="M 60.9 -9.45 A 18.6 9.3 0 0 0 98.1 -9.45 L 98.1 -5.25 A 18.6 9.3 0 0 1 60.9 -5.25 Z" fill="#BC8930" stroke="rgba(31,68,82,0.4)" stroke-width="1"/><ellipse cx="79.5" cy="-9.45" rx="18.6" ry="9.3" fill="#E7BA5D" stroke="rgba(31,68,82,0.5)" stroke-width="1.1"/><path d="M 60.9 -13.65 A 18.6 9.3 0 0 0 98.1 -13.65 L 98.1 -9.45 A 18.6 9.3 0 0 1 60.9 -9.45 Z" fill="#BC8930" stroke="rgba(31,68,82,0.4)" stroke-width="1"/><ellipse cx="79.5" cy="-13.65" rx="18.6" ry="9.3" fill="#E7BA5D" stroke="rgba(31,68,82,0.5)" stroke-width="1.1"/><path d="M 60.9 -17.85 A 18.6 9.3 0 0 0 98.1 -17.85 L 98.1 -13.65 A 18.6 9.3 0 0 1 60.9 -13.65 Z" fill="#BC8930" stroke="rgba(31,68,82,0.4)" stroke-width="1"/><ellipse cx="79.5" cy="-17.85" rx="18.6" ry="9.3" fill="#E7BA5D" stroke="rgba(31,68,82,0.5)" stroke-width="1.1"/><line x1="6" y1="-15" x2="27" y2="-10.5" stroke="#E39774" stroke-width="2.6" stroke-dasharray="2 5" stroke-linecap="round"/><polygon points="27,-10.5 19.14,-9 20.45,-15.09" fill="#E39774"/><line x1="9" y1="13.5" x2="-57" y2="-7.5" stroke="rgba(31,68,82,0.5)" stroke-width="2" stroke-dasharray="2 5" stroke-linecap="round"/><polygon points="-57,-7.5 -49.03,-8.23 -50.92,-2.3" fill="rgba(31,68,82,0.5)"/><polygon points="-114,3 -69,25.5 -69,29.7 -114,7.2" fill="#CC7C5A"/><polygon points="-42,12 -69,25.5 -69,29.7 -42,16.2" fill="#CC7C5A"/><polygon points="-87,-10.5 -42,12 -69,25.5 -114,3" fill="#EDAB8E" stroke="rgba(31,68,82,0.4)" stroke-width="1" stroke-linejoin="round"/><text x="-78" y="10.5" text-anchor="middle" font-family="Geist, system-ui, sans-serif" font-size="12" font-weight="800" fill="#1F4452" transform="skewX(-26.57) scale(1,0.92)" transform-origin="-78 7.5">EARLY</text>
</g>
</svg>
