<svg xmlns="http://www.w3.org/2000/svg" viewBox="0 0 640 480" width="640" height="480" fill="none" role="img" aria-label="An invoice accumulating its own settlement history">
<title>An invoice accumulating its own settlement history</title>
<g transform="translate(320,250)">
<ellipse cx="-12" cy="12" rx="150" ry="51.00000000000001" fill="rgba(31,68,82,0.08)"/><polygon points="-132,0 0,66 0,75 -132,9" fill="#FBF7F5" stroke="rgba(31,68,82,0.5)" stroke-width="1" stroke-linejoin="round"/><polygon points="132,0 0,66 0,75 132,9" fill="#EDE7E2" stroke="rgba(31,68,82,0.5)" stroke-width="1" stroke-linejoin="round"/><polygon points="0,-66 132,0 0,66 -132,0" fill="#FFFFFF" stroke="rgba(31,68,82,0.6)" stroke-width="1" stroke-linejoin="round"/><polygon points="-78,-0.6 -12,32.4 -12,36 -78,3" fill="#5C9EAD" stroke="rgba(31,68,82,0.5)" stroke-width="1" stroke-linejoin="round"/><polygon points="66,-6.6 -12,32.4 -12,36 66,-3" fill="#4B8391" stroke="rgba(31,68,82,0.5)" stroke-width="1" stroke-linejoin="round"/><polygon points="0,-39.6 66,-6.6 -12,32.4 -78,-0.6" fill="#83B7C2" stroke="rgba(31,68,82,0.6)" stroke-width="1" stroke-linejoin="round"/><line x1="-17.6" y1="-22.4" x2="31.6" y2="2.2" stroke="rgba(31,68,82,0.32)" stroke-width="1.4" stroke-linecap="round"/><line x1="-43.6" y1="-9.4" x2="5.6" y2="15.2" stroke="rgba(31,68,82,0.32)" stroke-width="1.4" stroke-linecap="round"/><polygon points="-78,-9.6 -12,23.4 -12,27 -78,-6" fill="#FBF7F5" stroke="rgba(31,68,82,0.5)" stroke-width="1" stroke-linejoin="round"/><polygon points="66,-15.6 -12,23.4 -12,27 66,-12" fill="#EDE7E2" stroke="rgba(31,68,82,0.5)" stroke-width="1" stroke-linejoin="round"/><polygon points="0,-48.6 66,-15.6 -12,23.4 -78,-9.6" fill="#FFFFFF" stroke="rgba(31,68,82,0.6)" stroke-width="1" stroke-linejoin="round"/><line x1="-11.1" y1="-34.65" x2="38.1" y2="-10.05" stroke="rgba(31,68,82,0.32)" stroke-width="1.4" stroke-linecap="round"/><line x1="-30.6" y1="-24.9" x2="18.6" y2="-0.3" stroke="rgba(31,68,82,0.32)" stroke-width="1.4" stroke-linecap="round"/><line x1="-50.1" y1="-15.15" x2="-0.9" y2="9.45" stroke="rgba(31,68,82,0.32)" stroke-width="1.4" stroke-linecap="round"/><polygon points="-78,-18.6 -12,14.4 -12,18 -78,-15" fill="#FBF7F5" stroke="rgba(31,68,82,0.5)" stroke-width="1" stroke-linejoin="round"/><polygon points="66,-24.6 -12,14.4 -12,18 66,-21" fill="#EDE7E2" stroke="rgba(31,68,82,0.5)" stroke-width="1" stroke-linejoin="round"/><polygon points="0,-57.6 66,-24.6 -12,14.4 -78,-18.6" fill="#FFFFFF" stroke="rgba(31,68,82,0.6)" stroke-width="1" stroke-linejoin="round"/><line x1="-7.2" y1="-45.6" x2="42" y2="-21" stroke="rgba(31,68,82,0.32)" stroke-width="1.4" stroke-linecap="round"/><line x1="-22.8" y1="-37.8" x2="26.4" y2="-13.2" stroke="rgba(31,68,82,0.32)" stroke-width="1.4" stroke-linecap="round"/><line x1="-38.4" y1="-30" x2="10.8" y2="-5.4" stroke="rgba(31,68,82,0.32)" stroke-width="1.4" stroke-linecap="round"/><line x1="-54" y1="-22.2" x2="-29.4" y2="-9.9" stroke="rgba(31,68,82,0.32)" stroke-width="1.4" stroke-linecap="round"/><polygon points="48,-33.6 66,-24.6 48,-15.6" fill="#E39774"/><polygon points="-54,9 -9,31.5 -9,35.7 -54,13.2" fill="#CC7C5A"/><polygon points="18,18 -9,31.5 -9,35.7 18,22.2" fill="#CC7C5A"/><polygon points="-27,-4.5 18,18 -9,31.5 -54,9" fill="#EDAB8E" stroke="rgba(31,68,82,0.4)" stroke-width="1" stroke-linejoin="round"/><text x="-18" y="16.5" text-anchor="middle" font-family="Geist, system-ui, sans-serif" font-size="12" font-weight="800" fill="#1F4452" transform="skewX(-26.57) scale(1,0.92)" transform-origin="-18 13.5">PROOF</text>
</g>
</svg>
